<svg width="21" height="21" viewBox="0 0 21 21" fill="none" xmlns="http://www.w3.org/2000/svg">
<path d="M17.1555 16.6117L20.0425 19.4973C20.1772 19.6367 20.2517 19.8234 20.25 20.0172C20.2483 20.211 20.1706 20.3964 20.0335 20.5334C19.8965 20.6704 19.7111 20.7482 19.5173 20.7498C19.3235 20.7515 19.1368 20.677 18.9974 20.5424L16.1104 17.6554C14.2237 19.2717 11.7844 20.0946 9.30418 19.9512C6.82396 19.8079 4.49567 18.7094 2.80788 16.8864C1.12008 15.0634 0.203969 12.6575 0.251782 10.1736C0.299595 7.68974 1.30761 5.3209 3.06432 3.5642C4.82102 1.80749 7.18986 0.799473 9.67375 0.75166C12.1576 0.703846 14.5635 1.61996 16.3865 3.30775C18.2095 4.99555 19.308 7.32384 19.4513 9.80405C19.5947 12.2843 18.7719 14.7236 17.1555 16.6102V16.6117ZM9.8588 18.4891C12.0151 18.4891 14.0831 17.6325 15.6079 16.1078C17.1326 14.583 17.9892 12.515 17.9892 10.3587C17.9892 8.20235 17.1326 6.13435 15.6079 4.6096C14.0831 3.08485 12.0151 2.22826 9.8588 2.22826C7.70248 2.22826 5.63447 3.08485 4.10972 4.6096C2.58497 6.13435 1.72838 8.20235 1.72838 10.3587C1.72838 12.515 2.58497 14.583 4.10972 16.1078C5.63447 17.6325 7.70248 18.4891 9.8588 18.4891Z" fill="#F2F2F2"/>
</svg>
